<svg data-v-423bf9ae="" xmlns="http://www.w3.org/2000/svg" viewBox="0 0 494 90" class="iconLeft"><!----><!----><!----><g data-v-423bf9ae="" id="4793aa7a-a964-45c5-a552-481867f005c4" fill="#D1A103" transform="matrix(6.109979823280842,0,0,6.109979823280842,107.067204673453,-11.334014119236052)"><path d="M6.36 4.31L6.36 8.11C5.75 7.41 4.87 6.99 3.85 6.99C1.90 6.99 0.48 8.48 0.48 10.56C0.48 12.63 1.90 14.13 3.85 14.13C4.87 14.13 5.75 13.71 6.36 13.01L6.36 14L7.78 14L7.78 4.31ZM4.14 12.88C2.87 12.88 1.95 11.91 1.95 10.56C1.95 9.21 2.87 8.23 4.14 8.23C5.43 8.23 6.36 9.21 6.36 10.56C6.36 11.91 5.43 12.88 4.14 12.88ZM16.49 10.57C16.48 8.48 14.95 6.99 12.82 6.99C10.70 6.99 9.14 8.48 9.14 10.56C9.14 12.63 10.70 14.13 12.82 14.13C14.52 14.13 15.99 13.03 16.38 11.51L14.92 11.51C14.66 12.33 13.82 12.95 12.84 12.95C11.65 12.95 10.74 12.15 10.56 11.00L16.45 11.00C16.48 10.86 16.49 10.71 16.49 10.57ZM12.84 8.16C13.97 8.16 14.88 8.88 15.12 9.90L10.60 9.90C10.85 8.86 11.72 8.16 12.84 8.16ZM22.44 7.11L20.40 12.59L18.35 7.11L16.83 7.11L19.54 14L21.25 14L23.97 7.11ZM30.27 7.11L30.27 8.11C29.67 7.41 28.78 6.99 27.76 6.99C25.82 6.99 24.39 8.48 24.39 10.56C24.39 12.63 25.82 14.13 27.76 14.13C28.78 14.13 29.67 13.71 30.27 13.01L30.27 14L31.70 14L31.70 7.11ZM28.06 12.88C26.78 12.88 25.86 11.91 25.86 10.56C25.86 9.21 26.78 8.23 28.06 8.23C29.34 8.23 30.27 9.21 30.27 10.56C30.27 11.91 29.34 12.88 28.06 12.88ZM37.06 6.99C36.11 6.99 35.34 7.41 34.89 8.15L34.89 4.31L33.46 4.31L33.46 14L34.89 14L34.89 9.97C34.89 8.86 35.57 8.13 36.64 8.13C37.67 8.13 38.35 8.86 38.35 9.97L38.35 14L39.79 14L39.79 9.77C39.79 8.11 38.64 6.99 37.06 6.99ZM44.03 6.99C42.42 6.99 41.33 7.81 41.33 9.06C41.33 10.68 42.97 10.99 44.00 11.14C44.79 11.28 45.47 11.40 45.47 12.11C45.47 12.68 44.90 13.06 44.10 13.06C43.25 13.06 42.63 12.63 42.60 11.97L41.20 11.97C41.22 13.24 42.39 14.13 44.06 14.13C45.71 14.13 46.89 13.27 46.89 12.03C46.89 10.37 45.15 10.08 44.17 9.90C43.37 9.74 42.74 9.63 42.74 8.92C42.74 8.40 43.27 8.04 44.00 8.04C44.80 8.04 45.35 8.46 45.37 9.07L46.72 9.07C46.72 7.84 45.60 6.99 44.03 6.99ZM53.80 7.11L53.80 8.11C53.20 7.41 52.32 6.99 51.30 6.99C49.35 6.99 47.92 8.48 47.92 10.56C47.92 12.63 49.35 14.13 51.30 14.13C52.32 14.13 53.20 13.71 53.80 13.01L53.80 14L55.23 14L55.23 7.11ZM51.59 12.88C50.32 12.88 49.39 11.91 49.39 10.56C49.39 9.21 50.32 8.23 51.59 8.23C52.88 8.23 53.80 9.21 53.80 10.56C53.80 11.91 52.88 12.88 51.59 12.88ZM60.59 6.99C59.64 6.99 58.87 7.41 58.42 8.15L58.42 7.11L56.99 7.11L56.99 14L58.42 14L58.42 9.97C58.42 8.86 59.11 8.13 60.17 8.13C61.21 8.13 61.88 8.86 61.88 9.97L61.88 14L63.32 14L63.32 9.77C63.32 8.11 62.17 6.99 60.59 6.99Z"></path></g><!----><g data-v-423bf9ae="" id="53ceb6b2-61dd-4631-ab35-919766a077b4" transform="matrix(1.0024504480251102,0,0,1.0024504480251102,-5.01252178973548,-5.01252178973548)" stroke="none" fill="#D1A103"><path d="M89.28 5.11H10.72a5.61 5.61 0 0 0-5.61 5.61v78.56a5.61 5.61 0 0 0 5.61 5.61h78.56a5.61 5.61 0 0 0 5.61-5.61V10.72a5.61 5.61 0 0 0-5.61-5.61zM64 66.84H36a2.81 2.81 0 0 1 0-5.61h28a2.81 2.81 0 0 1 0 5.61z"></path></g><!----></svg>